<?xml version="1.0" standalone="no"?>
<!DOCTYPE svg PUBLIC "-//W3C//DTD SVG 20010904//EN"
 "http://www.w3.org/TR/2001/REC-SVG-20010904/DTD/svg10.dtd">
<svg version="1.0" xmlns="http://www.w3.org/2000/svg"
 width="239.000000pt" height="211.000000pt" viewBox="0 0 239.000000 211.000000"
 preserveAspectRatio="xMidYMid meet" fill="#fff">

<g transform="translate(0.000000,211.000000) scale(0.100000,-0.100000)"
fill="#000000" stroke="none">
<path fill="#fff" d="M782 2094 c-12 -8 -22 -26 -22 -39 0 -13 -11 -37 -25 -52 l-24 -28
-38 21 c-39 22 -72 19 -89 -8 -5 -7 -9 -42 -9 -78 l0 -65 -49 -6 c-50 -5 -76
-26 -76 -60 0 -27 11 -49 25 -49 6 0 20 -9 29 -19 23 -26 14 -54 -30 -87 -22
-17 -34 -35 -34 -51 0 -37 18 -63 44 -63 30 0 76 -36 76 -60 0 -9 -7 -23 -15
-30 -21 -17 -19 -64 4 -84 20 -18 34 -20 94 -10 50 8 71 -9 62 -52 -4 -26 -1
-38 15 -54 29 -29 67 -25 101 11 37 39 75 37 99 -6 30 -54 120 -40 120 19 0
51 52 84 80 51 18 -22 66 -18 90 7 21 23 26 53 10 63 -16 10 -12 62 6 80 12
11 25 14 46 10 66 -15 92 64 38 115 -43 40 -41 77 5 96 66 27 50 110 -23 125
-36 7 -62 26 -62 44 0 7 9 24 21 39 16 21 19 32 12 54 -12 35 -55 57 -82 42
-54 -29 -106 1 -95 55 5 27 2 36 -17 49 -35 24 -68 20 -100 -15 -34 -36 -68
-36 -86 1 -24 49 -62 62 -101 34z m244 -209 c165 -81 195 -312 56 -437 -138
-124 -343 -88 -426 76 -120 234 130 478 370 361z"/>
<path fill="#fff" d="M839 1830 c-111 -33 -168 -174 -111 -275 59 -105 194 -132 291 -58
60 46 88 147 60 220 -33 88 -147 142 -240 113z"/>
<path fill="#fff" d="M1729 1420 c-9 -5 -20 -21 -23 -35 -7 -26 -70 -75 -97 -75 -10 0 -29
15 -43 33 -49 63 -55 67 -93 67 -40 0 -102 -31 -104 -52 -1 -7 -2 -31 -3 -54
-3 -53 -38 -104 -73 -104 -14 0 -41 9 -60 21 -41 26 -74 20 -114 -21 -34 -33
-39 -82 -12 -119 20 -29 23 -102 4 -124 -9 -12 -29 -17 -63 -17 -66 0 -98 -32
-98 -100 0 -52 11 -66 72 -94 20 -10 39 -24 42 -32 10 -25 -24 -92 -60 -119
-30 -23 -34 -32 -34 -71 0 -62 40 -105 97 -102 39 1 90 -19 112 -45 14 -17 6
-61 -15 -78 -8 -6 -14 -28 -14 -48 1 -58 47 -101 109 -101 16 0 33 5 36 11 12
19 58 30 96 24 30 -5 40 -12 48 -37 6 -17 8 -41 5 -54 -5 -18 2 -31 24 -54 25
-25 39 -30 76 -30 47 0 60 8 99 64 23 33 72 59 97 51 11 -3 32 -25 48 -48 25
-38 32 -42 73 -45 38 -2 52 2 78 23 26 23 31 34 31 72 0 25 8 58 17 74 25 41
57 47 108 19 49 -27 79 -23 118 16 37 37 43 77 18 118 -13 21 -21 50 -21 79 0
54 16 67 80 67 101 0 138 139 48 182 -23 11 -42 31 -56 59 -25 50 -18 69 33
93 56 27 71 77 40 136 -19 38 -41 49 -93 48 -52 0 -112 34 -112 65 0 12 9 37
20 55 29 47 25 79 -14 118 -40 40 -71 43 -133 13 -51 -25 -107 -20 -123 11 -5
10 -10 39 -10 64 0 36 -5 48 -26 65 -29 23 -105 29 -135 11z m47 -294 c123
-33 221 -115 277 -234 30 -62 32 -75 32 -172 0 -97 -2 -110 -32 -172 -53 -113
-146 -196 -262 -233 -86 -28 -217 -18 -304 22 -171 81 -270 264 -239 445 43
252 285 409 528 344z"/>
<path fill="#fff" d="M1563 994 c-58 -21 -129 -87 -160 -148 -21 -40 -26 -66 -26 -121 -1
-115 55 -210 157 -263 44 -23 63 -27 136 -27 91 0 120 10 191 66 87 68 122
209 80 321 -25 65 -81 127 -143 159 -56 29 -175 35 -235 13z"/>
<path fill="#fff" d="M422 1128 c-7 -7 -12 -19 -12 -28 0 -20 -41 -60 -61 -60 -9 0 -25 11
-37 25 -27 31 -51 32 -86 4 -24 -19 -27 -26 -21 -60 4 -22 2 -46 -5 -59 -11
-20 -17 -22 -59 -16 -38 5 -51 3 -63 -11 -29 -34 -30 -55 -2 -94 36 -52 30
-80 -20 -94 -28 -8 -42 -19 -48 -37 -13 -37 6 -76 39 -84 57 -14 70 -50 33
-97 -26 -32 -25 -58 1 -91 18 -22 26 -25 58 -20 23 4 48 1 61 -6 20 -11 22
-17 16 -56 -5 -36 -2 -48 14 -64 26 -26 65 -25 97 0 42 33 93 21 93 -21 0 -27
28 -49 64 -49 35 0 56 15 56 40 0 20 41 60 61 60 9 0 25 -11 37 -25 27 -31 51
-32 86 -4 24 19 26 26 21 63 -5 32 -2 47 12 64 16 20 22 22 50 12 40 -14 67
-1 81 39 9 25 7 34 -14 62 -39 54 -29 93 26 101 36 5 55 49 38 85 -7 15 -22
29 -33 31 -27 5 -65 41 -65 62 0 9 11 26 25 38 31 27 32 56 2 86 -20 20 -31
23 -68 19 -35 -4 -48 -1 -62 15 -14 15 -16 25 -7 46 5 15 10 32 10 37 0 19
-41 49 -66 49 -14 0 -37 -9 -51 -20 -48 -38 -93 -23 -93 30 0 35 -80 56 -108
28z m139 -195 c103 -33 189 -151 189 -257 0 -97 -63 -197 -154 -243 -41 -22
-65 -27 -121 -27 -82 1 -126 17 -185 70 -56 51 -82 105 -88 185 -4 57 -1 75
21 120 40 84 82 123 159 150 67 23 112 24 179 2z"/>
<path fill="#fff" d="M395 852 c-167 -80 -146 -314 33 -362 156 -41 291 131 216 275 -46
88 -161 128 -249 87z"/>
</g>
</svg>
