<?xml version="1.0" standalone="no"?>
<!DOCTYPE svg PUBLIC "-//W3C//DTD SVG 20010904//EN"
 "http://www.w3.org/TR/2001/REC-SVG-20010904/DTD/svg10.dtd">
<svg version="1.0" xmlns="http://www.w3.org/2000/svg"
 width="268.000000pt" height="427.000000pt" viewBox="0 0 268.000000 427.000000"
 preserveAspectRatio="xMidYMid meet">

<g transform="translate(0.000000,427.000000) scale(0.100000,-0.100000)"
fill="#ffff" stroke="none">
<path d="M520 3815 c0 -176 2 -205 15 -205 13 0 15 29 15 205 0 176 -2 205
-15 205 -13 0 -15 -29 -15 -205z"/>
<path d="M2130 3815 c0 -176 2 -205 15 -205 13 0 15 29 15 205 0 176 -2 205
-15 205 -13 0 -15 -29 -15 -205z"/>
<path d="M610 3825 c0 -12 13 -15 55 -15 42 0 55 3 55 15 0 12 -13 15 -55 15
-42 0 -55 -3 -55 -15z"/>
<path d="M740 3825 c0 -12 13 -15 55 -15 42 0 55 3 55 15 0 12 -13 15 -55 15
-42 0 -55 -3 -55 -15z"/>
<path d="M880 3825 c0 -12 13 -15 55 -15 42 0 55 3 55 15 0 12 -13 15 -55 15
-42 0 -55 -3 -55 -15z"/>
<path d="M1010 3825 c0 -12 13 -15 60 -15 47 0 60 3 60 15 0 12 -13 15 -60 15
-47 0 -60 -3 -60 -15z"/>
<path d="M1150 3825 c0 -12 13 -15 55 -15 42 0 55 3 55 15 0 12 -13 15 -55 15
-42 0 -55 -3 -55 -15z"/>
<path d="M1280 3825 c0 -12 13 -15 60 -15 47 0 60 3 60 15 0 12 -13 15 -60 15
-47 0 -60 -3 -60 -15z"/>
<path d="M1420 3825 c0 -12 13 -15 55 -15 42 0 55 3 55 15 0 12 -13 15 -55 15
-42 0 -55 -3 -55 -15z"/>
<path d="M1560 3825 c0 -12 13 -15 55 -15 42 0 55 3 55 15 0 12 -13 15 -55 15
-42 0 -55 -3 -55 -15z"/>
<path d="M1690 3825 c0 -12 13 -15 55 -15 42 0 55 3 55 15 0 12 -13 15 -55 15
-42 0 -55 -3 -55 -15z"/>
<path d="M1830 3825 c0 -12 13 -15 55 -15 42 0 55 3 55 15 0 12 -13 15 -55 15
-42 0 -55 -3 -55 -15z"/>
<path d="M1960 3825 c0 -12 13 -15 60 -15 47 0 60 3 60 15 0 12 -13 15 -60 15
-47 0 -60 -3 -60 -15z"/>
<path d="M370 3245 c0 -176 2 -205 15 -205 13 0 15 29 15 205 0 176 -2 205
-15 205 -13 0 -15 -29 -15 -205z"/>
<path d="M646 3419 c-68 -60 -72 -217 -7 -283 58 -57 172 -42 205 29 21 43 20
45 -9 45 -18 0 -25 -5 -25 -18 0 -40 -65 -71 -112 -53 -44 17 -61 62 -56 153
3 73 6 82 31 104 47 40 116 24 137 -32 6 -14 18 -24 30 -24 24 0 24 1 6 45
-18 42 -61 65 -120 65 -36 0 -52 -6 -80 -31z"/>
<path d="M2280 3245 c0 -198 1 -205 20 -205 19 0 20 7 20 205 0 198 -1 205
-20 205 -19 0 -20 -7 -20 -205z"/>
<path d="M941 3325 c-27 -32 -31 -43 -31 -96 0 -56 3 -64 34 -95 99 -99 239
24 182 160 -19 46 -52 66 -107 66 -41 0 -51 -4 -78 -35z m129 -15 c56 -56 24
-180 -47 -180 -13 0 -35 11 -48 25 -33 32 -35 110 -4 149 25 32 70 35 99 6z"/>
<path d="M1200 3252 c0 -100 2 -110 23 -130 26 -24 75 -29 110 -11 16 9 22 9
25 0 2 -6 12 -11 23 -11 18 0 19 9 19 130 0 123 -1 130 -20 130 -19 0 -20 -7
-20 -92 0 -99 -3 -109 -37 -127 -63 -33 -83 -4 -83 120 0 92 -1 99 -20 99 -19
0 -20 -7 -20 -108z"/>
<path d="M1504 3342 c-33 -26 -44 -56 -44 -117 0 -51 3 -60 34 -91 46 -46 104
-48 147 -5 16 16 29 34 29 40 0 19 -28 12 -54 -14 -32 -32 -60 -32 -91 0 -20
19 -25 34 -25 73 0 94 73 137 122 72 12 -16 28 -30 35 -30 22 0 15 36 -13 64
-21 21 -36 26 -73 26 -28 0 -54 -7 -67 -18z"/>
<path d="M1755 3336 c-81 -81 -32 -236 74 -236 107 0 159 151 79 230 -25 25
-38 30 -79 30 -39 0 -55 -5 -74 -24z m125 -31 c19 -20 24 -36 23 -77 -1 -43
-5 -56 -27 -75 -15 -13 -35 -23 -44 -23 -29 0 -61 29 -70 64 -28 99 56 177
118 111z"/>
<path d="M2000 3278 c0 -97 14 -154 40 -168 25 -13 76 -13 103 1 16 9 22 9 25
0 2 -6 10 -11 18 -11 11 0 14 25 14 130 0 123 -1 130 -20 130 -18 0 -20 -8
-22 -102 -3 -99 -4 -103 -30 -117 -21 -12 -31 -13 -52 -3 -26 11 -26 13 -26
117 l0 105 -25 0 c-25 0 -25 -1 -25 -82z"/>
<path d="M1341 2866 c-22 -12 -50 -50 -51 -68 0 -17 39 -7 45 10 13 42 95 50
115 12 25 -47 -6 -100 -60 -100 -20 0 -30 -5 -30 -15 0 -10 10 -15 28 -15 46
0 72 -25 72 -70 0 -44 -18 -60 -68 -60 -29 0 -62 26 -62 48 0 7 -9 12 -20 12
-24 0 -26 -26 -5 -57 34 -49 146 -49 180 0 24 35 20 102 -9 124 l-23 19 23 28
c69 80 -39 185 -135 132z"/>
<path d="M460 2665 c0 -176 2 -205 15 -205 13 0 15 29 15 205 0 176 -2 205
-15 205 -13 0 -15 -29 -15 -205z"/>
<path d="M2190 2665 c0 -176 2 -205 15 -205 13 0 15 29 15 205 0 176 -2 205
-15 205 -13 0 -15 -29 -15 -205z"/>
<path d="M1187 2783 c-4 -3 -7 -15 -7 -25 0 -23 38 -25 47 -2 8 21 -24 43 -40
27z"/>
<path d="M1180 2549 c0 -15 5 -20 22 -17 34 5 37 38 4 38 -20 0 -26 -5 -26
-21z"/>
<path d="M520 2095 c0 -176 2 -205 15 -205 13 0 15 29 15 205 0 176 -2 205
-15 205 -13 0 -15 -29 -15 -205z"/>
<path d="M2130 2095 c0 -176 2 -205 15 -205 13 0 15 29 15 205 0 176 -2 205
-15 205 -13 0 -15 -29 -15 -205z"/>
<path d="M610 2100 c0 -18 7 -20 55 -20 48 0 55 2 55 20 0 18 -7 20 -55 20
-48 0 -55 -2 -55 -20z"/>
<path d="M740 2100 c0 -18 7 -20 55 -20 48 0 55 2 55 20 0 18 -7 20 -55 20
-48 0 -55 -2 -55 -20z"/>
<path d="M880 2100 c0 -18 7 -20 55 -20 48 0 55 2 55 20 0 18 -7 20 -55 20
-48 0 -55 -2 -55 -20z"/>
<path d="M1017 2114 c-4 -4 -7 -14 -7 -21 0 -11 14 -13 58 -11 43 2 57 7 57
18 0 11 -14 16 -50 18 -28 2 -54 0 -58 -4z"/>
<path d="M1150 2100 c0 -18 7 -20 55 -20 48 0 55 2 55 20 0 18 -7 20 -55 20
-48 0 -55 -2 -55 -20z"/>
<path d="M1285 2110 c-12 -20 7 -30 61 -30 47 0 54 2 54 20 0 18 -7 20 -54 20
-30 0 -58 -4 -61 -10z"/>
<path d="M1420 2100 c0 -18 7 -20 55 -20 48 0 55 2 55 20 0 18 -7 20 -55 20
-48 0 -55 -2 -55 -20z"/>
<path d="M1560 2100 c0 -18 7 -20 55 -20 48 0 55 2 55 20 0 18 -7 20 -55 20
-48 0 -55 -2 -55 -20z"/>
<path d="M1690 2100 c0 -18 7 -20 55 -20 48 0 55 2 55 20 0 18 -7 20 -55 20
-48 0 -55 -2 -55 -20z"/>
<path d="M1830 2100 c0 -18 7 -20 55 -20 48 0 55 2 55 20 0 18 -7 20 -55 20
-48 0 -55 -2 -55 -20z"/>
<path d="M1960 2100 c0 -18 6 -20 61 -20 52 0 60 2 57 18 -2 13 -15 18 -61 20
-52 3 -57 1 -57 -18z"/>
<path d="M683 1738 c-53 -55 -77 -121 -77 -213 -1 -96 21 -167 68 -221 32 -37
64 -42 38 -6 -7 9 -25 42 -40 72 -23 48 -27 67 -26 145 1 97 19 163 55 201 12
12 19 30 17 39 -2 13 -10 9 -35 -17z"/>
<path d="M1597 1758 c-3 -9 1 -22 9 -29 48 -39 80 -176 65 -270 -11 -63 -34
-125 -57 -151 -29 -31 -10 -45 20 -15 103 103 107 326 7 438 -30 34 -39 39
-44 27z"/>
<path d="M764 1683 c31 -84 125 -326 130 -330 2 -3 11 -3 20 -1 12 2 8 19 -20
93 -19 50 -51 132 -70 183 -28 70 -40 92 -55 92 -17 0 -17 -3 -5 -37z"/>
<path d="M1521 1698 c-5 -13 -36 -95 -70 -182 -34 -87 -59 -161 -57 -164 16
-16 38 24 95 174 35 93 66 175 69 182 8 22 -28 12 -37 -10z"/>
<path d="M1920 1515 c0 -176 2 -205 15 -205 13 0 15 29 15 205 0 176 -2 205
-15 205 -13 0 -15 -29 -15 -205z"/>
<path d="M2040 1515 c0 -176 2 -205 15 -205 13 0 15 29 15 205 0 176 -2 205
-15 205 -13 0 -15 -29 -15 -205z"/>
<path d="M940 1355 c0 -13 31 -15 220 -15 189 0 220 2 220 15 0 13 -31 15
-220 15 -189 0 -220 -2 -220 -15z"/>
<path d="M716 1165 c-82 -88 -104 -244 -53 -367 21 -50 78 -113 88 -96 5 8 1
21 -11 33 -80 85 -85 299 -9 406 30 42 19 60 -15 24z"/>
<path d="M1568 1185 c-4 -4 4 -24 17 -44 39 -58 55 -117 55 -202 0 -87 -23
-165 -61 -206 -16 -16 -20 -26 -12 -34 12 -12 53 33 85 95 29 56 36 183 14
258 -16 55 -84 147 -98 133z"/>
<path d="M1890 945 c0 -176 2 -205 15 -205 13 0 15 29 15 205 0 176 -2 205
-15 205 -13 0 -15 -29 -15 -205z"/>
<path d="M2010 945 c0 -176 2 -205 15 -205 13 0 15 29 15 205 0 176 -2 205
-15 205 -13 0 -15 -29 -15 -205z"/>
<path d="M1140 1050 c0 -52 -4 -64 -31 -94 -17 -19 -46 -41 -65 -48 -36 -13
-43 -25 -20 -34 21 -8 82 24 111 58 l25 29 33 -34 c42 -42 93 -65 109 -49 7 7
10 13 7 14 -2 2 -22 12 -44 23 -57 29 -85 76 -85 141 0 47 -2 54 -20 54 -18 0
-20 -7 -20 -60z"/>
<path d="M810 1010 c-29 -55 30 -105 73 -62 17 18 19 26 11 49 -13 37 -67 45
-84 13z"/>
<path d="M1431 1016 c-7 -8 -11 -27 -9 -43 4 -34 47 -54 72 -33 21 17 21 76 0
84 -26 10 -51 7 -63 -8z"/>
<path d="M1977 623 c-10 -10 22 -63 39 -63 13 0 13 3 -1 29 -16 33 -29 44 -38
34z"/>
<path d="M1918 604 c-9 -9 25 -64 40 -64 16 0 15 6 -5 41 -17 29 -25 34 -35
23z"/>
<path d="M766 538 c-31 -73 -126 -325 -126 -332 0 -4 7 -6 16 -4 10 2 40 67
85 183 38 99 69 181 69 183 0 1 -7 2 -16 2 -8 0 -21 -15 -28 -32z"/>
<path d="M1808 529 c-65 -10 -197 -50 -205 -61 -3 -6 -1 -14 5 -20 6 -6 40 1
100 21 120 41 183 42 223 2 20 -20 29 -39 29 -61 0 -72 -62 -122 -175 -140
-66 -11 -67 -11 -56 -29 13 -20 109 -5 173 27 63 33 89 66 95 124 12 102 -65
157 -189 137z"/>
</g>
</svg>
